<?xml version="1.0" encoding="iso-8859-1"?>
<!-- Generator: Adobe Illustrator 16.0.0, SVG Export Plug-In . SVG Version: 6.00 Build 0)  -->
<!DOCTYPE svg PUBLIC "-//W3C//DTD SVG 1.1//EN" "http://www.w3.org/Graphics/SVG/1.1/DTD/svg11.dtd">
<svg version="1.1" id="Capa_1" xmlns="http://www.w3.org/2000/svg" xmlns:xlink="http://www.w3.org/1999/xlink" x="0px" y="0px"
	 width="401.506px" height="401.506px" viewBox="0 0 401.506 401.506" style="enable-background:new 0 0 401.506 401.506;"
	 xml:space="preserve">
<g>
	<path d="M397.373,135.487L267.742,5.867c-2.67-2.671-6.22-4.142-9.991-4.142c-3.773,0-7.322,1.471-9.991,4.142l-38.254,38.252
		c-2.67,2.67-4.141,6.219-4.141,9.992c0,3.774,1.471,7.322,4.141,9.992l5.575,5.562l-95.653,95.653L15.314,191.032
		c-4.944,1.221-8.863,5.025-10.227,9.93c-1.367,4.909,0.021,10.187,3.622,13.777l78.173,78.177l-82.741,82.74
		c-2.67,2.67-4.141,6.219-4.141,9.99c0,3.773,1.471,7.322,4.141,9.992c2.671,2.67,6.219,4.143,9.992,4.143s7.321-1.473,9.992-4.143
		l82.74-82.738l78.188,78.18c3.556,3.561,8.759,5,13.796,3.621c4.891-1.361,8.694-5.281,9.915-10.227l25.704-104.104l0.396-0.396
		l95.257-95.257l9.016,9.016c2.632,2.631,6.274,4.141,9.993,4.141c3.773,0,7.322-1.471,9.991-4.141l38.253-38.262
		C402.883,149.962,402.883,140.999,397.373,135.487z M187.332,353.387L46.402,212.465l75.883-18.742l83.781,83.789L187.332,353.387z
		 M221.695,253.174l-75.072-75.081l88.44-88.442l75.071,75.08L221.695,253.174z M349.129,163.754L239.484,54.109l18.267-18.266
		l109.646,109.636L349.129,163.754z"/>
</g>
<g>
</g>
<g>
</g>
<g>
</g>
<g>
</g>
<g>
</g>
<g>
</g>
<g>
</g>
<g>
</g>
<g>
</g>
<g>
</g>
<g>
</g>
<g>
</g>
<g>
</g>
<g>
</g>
<g>
</g>
</svg>
