<?xml version="1.0" encoding="iso-8859-1"?>
<!-- Generator: Adobe Illustrator 16.0.0, SVG Export Plug-In . SVG Version: 6.00 Build 0)  -->
<!DOCTYPE svg PUBLIC "-//W3C//DTD SVG 1.1//EN" "http://www.w3.org/Graphics/SVG/1.1/DTD/svg11.dtd">
<svg version="1.1" id="Capa_1" xmlns="http://www.w3.org/2000/svg" xmlns:xlink="http://www.w3.org/1999/xlink" x="0px" y="0px"
	 width="400px" height="400px" viewBox="0 0 400 400" style="enable-background:new 0 0 400 400;" xml:space="preserve">
<g>
	<g>
		<path d="M199.996,0C89.719,0,0,89.72,0,200c0,110.279,89.719,200,199.996,200C310.281,400,400,310.279,400,200
			C400,89.72,310.281,0,199.996,0z M199.996,373.77C104.187,373.77,26.23,295.816,26.23,200
			c0-95.817,77.957-173.769,173.766-173.769c95.816,0,173.772,77.953,173.772,173.769
			C373.769,295.816,295.812,373.77,199.996,373.77z"/>
		<path d="M199.996,91.382c-35.176,0-63.789,28.616-63.789,63.793c0,7.243,5.871,13.115,13.113,13.115
			c7.246,0,13.117-5.873,13.117-13.115c0-20.71,16.848-37.562,37.559-37.562c20.719,0,37.566,16.852,37.566,37.562
			c0,20.714-16.849,37.566-37.566,37.566c-7.242,0-13.113,5.873-13.113,13.114v45.684c0,7.243,5.871,13.115,13.113,13.115
			s13.117-5.872,13.117-13.115v-33.938c28.905-6.064,50.68-31.746,50.68-62.427C263.793,119.998,235.176,91.382,199.996,91.382z"/>
		<path d="M200.004,273.738c-9.086,0-16.465,7.371-16.465,16.462s7.379,16.465,16.465,16.465c9.094,0,16.457-7.374,16.457-16.465
			S209.098,273.738,200.004,273.738z"/>
	</g>
</g>
<g>
</g>
<g>
</g>
<g>
</g>
<g>
</g>
<g>
</g>
<g>
</g>
<g>
</g>
<g>
</g>
<g>
</g>
<g>
</g>
<g>
</g>
<g>
</g>
<g>
</g>
<g>
</g>
<g>
</g>
</svg>
